<?xml version="1.0" encoding="utf-8"?>
<svg xmlns="http://www.w3.org/2000/svg" width="640" height="260" viewBox="0 0 640 260">
  <rect width="640" height="260" fill="#0b0f14"/>
  <text x="24" y="28" fill="#8b9bb4" font-family="JetBrains Mono, Consolas, monospace" font-size="13">DOGE·多維共振幾何DCA網格 V5.3</text>
  <text x="24" y="48" fill="#5a6a7e" font-family="JetBrains Mono, Consolas, monospace" font-size="11">回測 60 日 · 網格合成曲線</text>
  <text x="520" y="48" fill="#3d9b6e" font-family="JetBrains Mono, Consolas, monospace" font-size="12">+9.4%</text>
  <polygon points="40.00,230.00 40.00,211.41 45.66,214.71 51.31,213.15 56.97,211.16 62.63,213.58 68.28,211.63 73.94,209.43 79.60,207.11 85.25,205.09 90.91,203.42 96.57,201.37 102.22,206.06 107.88,207.06 113.54,211.72 119.19,209.73 124.85,208.15 130.51,206.13 136.16,203.94 141.82,201.66 147.47,199.99 153.13,198.17 158.79,196.58 164.44,201.93 170.10,199.57 175.76,197.51 181.41,195.71 187.07,193.26 192.73,191.16 198.38,188.30 204.04,186.65 209.70,184.89 215.35,183.34 221.01,181.33 226.67,179.43 232.32,177.65 237.98,179.01 243.64,176.78 249.29,175.20 254.95,172.81 260.61,170.68 266.26,168.39 271.92,171.21 277.58,169.26 283.23,167.08 288.89,171.72 294.55,169.46 300.20,167.50 305.86,171.45 311.52,172.28 317.17,169.99 322.83,167.65 328.48,165.50 334.14,163.25 339.80,161.01 345.45,159.23 351.11,156.93 356.77,155.04 362.42,153.07 368.08,158.09 373.74,156.10 379.39,154.10 385.05,152.55 390.71,150.28 396.36,147.88 402.02,145.59 407.68,143.84 413.33,141.98 418.99,139.85 424.65,137.44 430.30,135.65 435.96,133.92 441.62,131.80 447.27,129.59 452.93,127.05 458.59,124.98 464.24,130.86 469.90,128.66 475.56,126.23 481.21,124.40 486.87,122.35 492.53,119.84 498.18,122.73 503.84,120.97 509.49,118.90 515.15,116.65 520.81,114.29 526.46,112.06 532.12,110.34 537.78,108.22 543.43,105.64 549.09,103.25 554.75,101.43 560.40,99.34 566.06,97.51 571.72,95.45 577.37,93.55 583.03,91.48 588.69,89.57 594.34,87.29 600.00,92.27 600.00,230.00" fill="#3d9b6e" fill-opacity="0.12"/>
  <polyline points="40.00,211.41 45.66,214.71 51.31,213.15 56.97,211.16 62.63,213.58 68.28,211.63 73.94,209.43 79.60,207.11 85.25,205.09 90.91,203.42 96.57,201.37 102.22,206.06 107.88,207.06 113.54,211.72 119.19,209.73 124.85,208.15 130.51,206.13 136.16,203.94 141.82,201.66 147.47,199.99 153.13,198.17 158.79,196.58 164.44,201.93 170.10,199.57 175.76,197.51 181.41,195.71 187.07,193.26 192.73,191.16 198.38,188.30 204.04,186.65 209.70,184.89 215.35,183.34 221.01,181.33 226.67,179.43 232.32,177.65 237.98,179.01 243.64,176.78 249.29,175.20 254.95,172.81 260.61,170.68 266.26,168.39 271.92,171.21 277.58,169.26 283.23,167.08 288.89,171.72 294.55,169.46 300.20,167.50 305.86,171.45 311.52,172.28 317.17,169.99 322.83,167.65 328.48,165.50 334.14,163.25 339.80,161.01 345.45,159.23 351.11,156.93 356.77,155.04 362.42,153.07 368.08,158.09 373.74,156.10 379.39,154.10 385.05,152.55 390.71,150.28 396.36,147.88 402.02,145.59 407.68,143.84 413.33,141.98 418.99,139.85 424.65,137.44 430.30,135.65 435.96,133.92 441.62,131.80 447.27,129.59 452.93,127.05 458.59,124.98 464.24,130.86 469.90,128.66 475.56,126.23 481.21,124.40 486.87,122.35 492.53,119.84 498.18,122.73 503.84,120.97 509.49,118.90 515.15,116.65 520.81,114.29 526.46,112.06 532.12,110.34 537.78,108.22 543.43,105.64 549.09,103.25 554.75,101.43 560.40,99.34 566.06,97.51 571.72,95.45 577.37,93.55 583.03,91.48 588.69,89.57 594.34,87.29 600.00,92.27" fill="none" stroke="#3d9b6e" stroke-width="2.1" stroke-linejoin="round"/>
</svg>
